<svg id="visual" viewBox="0 0 960 540" width="960" height="540" xmlns="http://www.w3.org/2000/svg" xmlns:xlink="http://www.w3.org/1999/xlink" version="1.1"><rect x="0" y="0" width="960" height="540" fill="#C03A3A"></rect><path d="M0 431L13.3 432.3C26.7 433.7 53.3 436.3 80 436.7C106.7 437 133.3 435 160 437C186.7 439 213.3 445 240 443.2C266.7 441.3 293.3 431.7 320 435.7C346.7 439.7 373.3 457.3 400 466C426.7 474.7 453.3 474.3 480 470.3C506.7 466.3 533.3 458.7 560 456.5C586.7 454.3 613.3 457.7 640 463.3C666.7 469 693.3 477 720 481.2C746.7 485.3 773.3 485.7 800 485C826.7 484.3 853.3 482.7 880 478.8C906.7 475 933.3 469 946.7 466L960 463L960 541L946.7 541C933.3 541 906.7 541 880 541C853.3 541 826.7 541 800 541C773.3 541 746.7 541 720 541C693.3 541 666.7 541 640 541C613.3 541 586.7 541 560 541C533.3 541 506.7 541 480 541C453.3 541 426.7 541 400 541C373.3 541 346.7 541 320 541C293.3 541 266.7 541 240 541C213.3 541 186.7 541 160 541C133.3 541 106.7 541 80 541C53.3 541 26.7 541 13.3 541L0 541Z" fill="#fff" stroke-linecap="round" stroke-linejoin="miter"></path></svg>